<svg xmlns="http://www.w3.org/2000/svg" viewBox="0 0 464.736 464.736" fill="#000000" xmlns:v="https://vecta.io/nano"><path d="M446.598 18.143c-24.183-24.184-63.393-24.191-87.592-.008l-16.717 16.717c-8.98-8.979-23.525-8.979-32.504 0a22.98 22.98 0 0 0 0 32.505l5.416 5.419-180.588 180.601h-.016l-62.685 62.691a28.21 28.21 0 0 0-8.235 18.684l-.15 3.344v.046l-2.529 56.704c-.104 2.633.883 5.185 2.739 7.048 1.751 1.759 4.145 2.738 6.63 2.738.135 0 .269 0 .42-.008l30.064-1.331h.016l18.318-.815 8.318-.366c9.203-.412 17.944-4.259 24.469-10.776L392.87 150.445l4.506 4.505a22.92 22.92 0 0 0 16.252 6.733c5.881 0 11.764-2.245 16.253-6.733 8.98-8.973 8.98-23.534 0-32.505l16.716-16.718c24.185-24.183 24.185-63.393.001-87.584zM272.639 227.33l-84.6 15.96 137.998-138.004 34.332 34.316-87.73 87.728zM64.5 423.872c-35.617 0-64.5 9.145-64.5 20.435 0 11.284 28.883 20.428 64.5 20.428s64.486-9.143 64.486-20.428c0-11.291-28.869-20.435-64.486-20.435z"/></svg>