<svg xmlns="http://www.w3.org/2000/svg" viewBox="0 0 256 256" height="273.067" width="273.067"><path d="M103.29 60.772c-18.882 0-37.65 7.775-51.001 21.127-8.412 8.412-14.605 18.974-18.039 30.359-8.253 1.558-16.049 5.586-21.993 11.53C4.51 131.535 0 142.42 0 153.378c0 10.956 4.51 21.845 12.257 29.593 7.748 7.747 18.637 12.257 29.593 12.257h187.437c6.993 0 13.945-2.878 18.89-7.823 4.946-4.945 7.823-11.897 7.823-18.89 0-6.994-2.877-13.942-7.823-18.887-4.914-4.915-11.812-7.784-18.761-7.82-1.357-12.67-7.097-24.866-16.115-33.884-10.385-10.385-24.98-16.432-39.666-16.432-3.566 0-7.123.366-10.62 1.054a70.714 70.714 0 0 0-8.723-10.647c-13.352-13.352-32.12-21.127-51.002-21.127z" style="marker:none" color="#000" overflow="visible"/></svg>