<?xml version="1.0" encoding="iso-8859-1"?>
<!-- Generator: Adobe Illustrator 19.0.0, SVG Export Plug-In . SVG Version: 6.00 Build 0)  -->
<svg version="1.1" id="Layer_1" xmlns="http://www.w3.org/2000/svg" xmlns:xlink="http://www.w3.org/1999/xlink" x="0px" y="0px"
	 viewBox="0 0 512 512" style="enable-background:new 0 0 512 512;" xml:space="preserve">
<g>
	<g>
		<path d="M471.899,223.977c-0.018,0-0.034,0-0.051,0c-5.61,0-10.172,4.534-10.198,10.15c-0.088,18.076-12.751,35.417-35.657,48.828
			c-2.376,1.391-4.851,2.702-7.375,3.97c36.374-67.861,65.667-136.147,65.667-180.08C484.283,46.932,391.22,0,272.416,0
			S60.548,46.932,60.548,106.844c0,18.791,5.362,42.039,14.341,67.801c-16.928-14.644-26.687-31.954-26.775-50.012
			c-0.028-5.616-4.589-10.149-10.198-10.149c-0.017,0-0.034,0-0.051,0c-5.632,0.028-10.177,4.616-10.149,10.249
			c0.161,33.07,22.798,63.05,60.358,83.758c22.98,53.967,57.041,114.447,89.117,166.864c-4.324-1.959-8.483-4.072-12.409-6.37
			c-22.906-13.411-35.57-30.752-35.657-48.828c-0.026-5.616-4.589-10.15-10.198-10.15c-0.017,0-0.034,0-0.051,0
			c-5.632,0.028-10.177,4.616-10.149,10.248c0.124,25.575,16.372,49.132,45.749,66.333c11.899,6.967,25.434,12.564,40.064,16.675
			c36.21,57.372,66.406,100.008,69.567,104.451c1.913,2.69,5.01,4.287,8.31,4.287s6.397-1.597,8.31-4.287
			c4.645-6.529,67.653-95.509,122.353-192.549c12.016-3.855,23.202-8.743,33.22-14.608c29.378-17.2,45.624-40.757,45.749-66.333
			C482.075,228.592,477.531,224.003,471.899,223.977z M389.225,298.039c-17.17,4.67-36.095,7.087-55.732,6.975
			c-0.017,0-0.034,0-0.051,0c-5.61,0-10.171,4.534-10.198,10.149c-0.026,5.633,4.517,10.222,10.149,10.249
			c0.404,0.002,0.807,0.003,1.211,0.003c14.076,0,27.857-1.205,41.025-3.517c-41.298,71.181-85.282,136.134-103.213,162.08
			c-10.077-14.58-28.38-41.478-49.81-74.876c10.883,1.537,22.124,2.343,33.567,2.343c0.402,0,0.809-0.001,1.211-0.003
			c5.632-0.028,10.177-4.616,10.149-10.249c-0.028-5.616-4.589-10.149-10.198-10.149c-0.017,0-0.034,0-0.051,0
			c-17.299,0.094-34.064-1.781-49.571-5.427c-31.349-50.026-66.509-110.057-91.835-164.531c13.349,4.913,27.912,8.845,43.487,11.614
			c0.604,0.107,1.205,0.159,1.797,0.159c4.851,0,9.152-3.473,10.03-8.415c0.986-5.546-2.71-10.841-8.257-11.827
			c-22.242-3.954-42.284-10.544-59.166-19.029c-13.971-33.792-22.822-64.123-22.822-86.744c0-21.359,19.418-42.915,53.276-59.14
			c36.742-17.608,85.82-27.305,138.193-27.305c52.373,0,101.451,9.697,138.193,27.304c33.857,16.226,53.276,37.781,53.276,59.14
			c0,19.024-25.32,31.278-40.411,36.888c-32.154,11.954-80.72,18.273-140.444,18.273c-0.151,0-0.302,0.003-0.453,0.01
			c-15.626,0.699-60.51-1.622-80.179-20.436c-6.543-6.258-9.723-13.783-9.723-23.003c0-21.808,39.196-33.218,77.914-33.218
			c18.041,0,35.447,2.53,47.752,6.945c11.766,4.22,15.941,8.966,15.941,11.748c0,5.633,4.567,10.199,10.199,10.199
			c5.632,0,10.199-4.566,10.199-10.199c0-9.3-5.11-22.218-29.453-30.95c-14.64-5.251-34.044-8.142-54.638-8.142
			c-24.286,0-47.038,3.981-64.064,11.21c-28.306,12.017-34.247,29.693-34.247,42.406c0,14.876,5.39,27.576,16.022,37.744
			c25.115,24.024,73.234,26.172,89.635,26.172c2.737,0,4.593-0.06,5.309-0.088c62.915-0.014,112.484-6.593,147.341-19.552
			c10.518-3.91,19.047-8.192,25.969-12.664C444.348,192.63,418.315,246.007,389.225,298.039z"/>
	</g>
</g>
<g>
	<g>
		<path d="M212.591,216.784c-2.784,0.013-5.593-0.013-8.361-0.08c-5.59-0.146-10.306,4.318-10.442,9.95
			c-0.136,5.631,4.318,10.306,9.95,10.442c2.46,0.059,4.953,0.089,7.432,0.089c0.508,0,1.016-0.001,1.523-0.003
			c5.632-0.029,10.177-4.617,10.148-10.25C222.812,221.299,218.178,216.755,212.591,216.784z"/>
	</g>
</g>
<g>
</g>
<g>
</g>
<g>
</g>
<g>
</g>
<g>
</g>
<g>
</g>
<g>
</g>
<g>
</g>
<g>
</g>
<g>
</g>
<g>
</g>
<g>
</g>
<g>
</g>
<g>
</g>
<g>
</g>
</svg>
